[h264 @ 0x55a0eca16d40] Reinit context to 848x464, pix_fmt: yuv420p
Input #0, mov,mp4,m4a,3gp,3g2,mj2, from '/var/www/html/project/media/video/original/4_5825521699868645309.mp4':
  Metadata:
    major_brand     : mp42
    minor_version   : 1
    compatible_brands: isommp41mp42
    creation_time   : 2024-10-24T17:30:59.000000Z
  Duration: 00:00:25.54, start: 0.000000, bitrate: 1705 kb/s
    Stream #0:0(und): Video: h264 (High), 1 reference frame (avc1 / 0x31637661), yuv420p(tv, bt709, left), 848x464, 1642 kb/s, SAR 1:1 DAR 53:29, 25.03 fps, 30 tbr, 600 tbn, 1200 tbc (default)
    Metadata:
      creation_time   : 2024-10-24T17:30:59.000000Z
      handler_name    : Core Media Video
    Stream #0:1(und): Audio: aac (LC) (mp4a / 0x6134706D), 44100 Hz, stereo, fltp, 57 kb/s (default)
    Metadata:
      creation_time   : 2024-10-24T17:30:59.000000Z
      handler_name    : Core Media Audio
[h264 @ 0x55a0eca33540] Reinit context to 1280x720, pix_fmt: yuv420p
Input #1, mov,mp4,m4a,3gp,3g2,mj2, from '/var/www/html/project/static/images/templates/Codino.mp4':
  Metadata:
    major_brand     : mp42
    minor_version   : 1
    compatible_brands: isommp41mp42
    creation_time   : 2021-07-11T07:02:58.000000Z
  Duration: 00:00:02.00, start: 0.000000, bitrate: 1007 kb/s
    Stream #1:0(ita): Audio: aac (LC) (mp4a / 0x6134706D), 44100 Hz, stereo, fltp, 102 kb/s (default)
    Metadata:
      creation_time   : 2021-07-11T07:02:58.000000Z
      handler_name    : Core Media Audio
    Stream #1:1(und): Video: h264 (High), 1 reference frame (avc1 / 0x31637661), yuv420p(tv, bt709, progressive, left), 1280x720 [SAR 1:1 DAR 16:9], 813 kb/s, 25 fps, 25 tbr, 25k tbn, 50k tbc (default)
    Metadata:
      creation_time   : 2021-07-11T07:02:58.000000Z
      handler_name    : Core Media Video
[Parsed_scale_0 @ 0x55a0ecb5db40] w:1280 h:720 flags:'bilinear' interl:0
[Parsed_scale_2 @ 0x55a0eca6a980] w:1280 h:720 flags:'bilinear' interl:0
Stream mapping:
  Stream #0:0 (h264) -> scale
  Stream #0:1 (aac) -> concat:in0:a0
  Stream #1:0 (aac) -> concat:in1:a0
  Stream #1:1 (h264) -> scale
  concat:out:v0 -> Stream #0:0 (libx264)
  concat:out:a0 -> Stream #0:1 (aac)
Press [q] to stop, [?] for help
[h264 @ 0x55a0eca36580] Reinit context to 848x464, pix_fmt: yuv420p
[h264 @ 0x55a0ece7ed00] Reinit context to 1280x720, pix_fmt: yuv420p
[Parsed_scale_0 @ 0x55a0eda72f80] w:1280 h:720 flags:'bilinear' interl:0
[Parsed_scale_2 @ 0x55a0eda7b0c0] w:1280 h:720 flags:'bilinear' interl:0
[graph 0 input from stream 0:0 @ 0x55a0eda7e3c0] w:848 h:464 pixfmt:yuv420p tb:1/600 fr:30/1 sar:1/1 sws_param:flags=2
[graph 0 input from stream 1:1 @ 0x55a0eda7f400] w:1280 h:720 pixfmt:yuv420p tb:1/25000 fr:25/1 sar:1/1 sws_param:flags=2
[graph_0_in_0_1 @ 0x55a0eda803c0] tb:1/44100 samplefmt:fltp samplerate:44100 chlayout:0x3
[graph_0_in_1_0 @ 0x55a0eda81500] tb:1/44100 samplefmt:fltp samplerate:44100 chlayout:0x3
[Parsed_scale_0 @ 0x55a0eda72f80] w:848 h:464 fmt:yuv420p sar:1/1 -> w:1280 h:720 fmt:yuv420p sar:477/464 flags:0x2
[Parsed_setsar_1 @ 0x55a0eda7ac00] w:1280 h:720 sar:477/464 dar:53/29 -> sar:1/1 dar:16/9
[Parsed_scale_2 @ 0x55a0eda7b0c0] w:1280 h:720 fmt:yuv420p sar:1/1 -> w:1280 h:720 fmt:yuv420p sar:1/1 flags:0x2
[Parsed_setsar_3 @ 0x55a0eda7b600] w:1280 h:720 sar:1/1 dar:16/9 -> sar:1/1 dar:16/9
[libx264 @ 0x55a0ecb21b40] using SAR=1/1
[libx264 @ 0x55a0ecb21b40] using cpu capabilities: MMX2 SSE2Fast SSSE3 SSE4.2 AVX FMA3 BMI2 AVX2
[libx264 @ 0x55a0ecb21b40] profile High, level 3.1
[libx264 @ 0x55a0ecb21b40] 264 - core 155 r2917 0a84d98 - H.264/MPEG-4 AVC codec - Copyleft 2003-2018 - http://www.videolan.org/x264.html - options: cabac=1 ref=1 deblock=1:0:0 analyse=0x3:0x113 me=hex subme=2 psy=1 psy_rd=1.00:0.00 mixed_ref=0 me_range=16 chroma_me=1 trellis=0 8x8dct=1 cqm=0 deadzone=21,11 fast_pskip=1 chroma_qp_offset=0 threads=22 lookahead_threads=5 sliced_threads=0 nr=0 decimate=1 interlaced=0 bluray_compat=0 constrained_intra=0 bframes=3 b_pyramid=2 b_adapt=1 b_bias=0 direct=1 weightb=1 open_gop=0 weightp=1 keyint=250 keyint_min=25 scenecut=40 intra_refresh=0 rc_lookahead=10 rc=crf mbtree=1 crf=18.0 qcomp=0.60 qpmin=0 qpmax=69 qpstep=4 ip_ratio=1.40 aq=1:1.00
Output #0, mp4, to '/var/www/html/project/media/video/watermarks/4_5825521699868645309.mp4':
  Metadata:
    major_brand     : mp42
    minor_version   : 1
    compatible_brands: isommp41mp42
    encoder         : Lavf58.29.100
    Stream #0:0: Video: h264 (libx264), 1 reference frame (avc1 / 0x31637661), yuv420p(progressive), 1280x720 [SAR 1:1 DAR 16:9], q=-1--1, 30 fps, 15360 tbn, 30 tbc (default)
    Metadata:
      encoder         : Lavc58.54.100 libx264
    Side data:
      cpb: bitrate max/min/avg: 0/0/0 buffer size: 0 vbv_delay: -1
    Stream #0:1: Audio: aac (LC) (mp4a / 0x6134706D), 44100 Hz, stereo, fltp, delay 1024, 128 kb/s (default)
    Metadata:
      encoder         : Lavc58.54.100 aac
[Parsed_concat_4 @ 0x55a0eda7c400] EOF on in0:v0, 1 streams left in segment.
[Parsed_concat_4 @ 0x55a0eda7c400] EOF on in0:a0, 0 streams left in segment.
[Parsed_concat_4 @ 0x55a0eda7c400] Segment finished at pts=25540499
[Parsed_concat_4 @ 0x55a0eda7c400] EOF on in1:a0, 1 streams left in segment.
[Parsed_concat_4 @ 0x55a0eda7c400] EOF on in1:v0, 0 streams left in segment.
[Parsed_concat_4 @ 0x55a0eda7c400] Segment finished at pts=27559184
No more output streams to write to, finishing.
frame=  689 fps= 68 q=-1.0 Lsize=   13092kB time=00:00:27.56 bitrate=3891.3kbits/s speed=2.72x    
[AVIOContext @ 0x55a0eca15180] Statistics: 0 seeks, 20 writeouts
video:12641kB audio:423kB subtitle:0kB other streams:0kB global headers:0kB muxing overhead: 0.217027%
Input file #0 (/var/www/html/project/media/video/original/4_5825521699868645309.mp4):
  Input stream #0:0 (video): 639 packets read (5243172 bytes); 639 frames decoded; 
  Input stream #0:1 (audio): 1102 packets read (184629 bytes); 1100 frames decoded (1126336 samples); 
  Total: 1741 packets (5427801 bytes) demuxed
Input file #1 (/var/www/html/project/static/images/templates/Codino.mp4):
  Input stream #1:0 (audio): 89 packets read (26579 bytes); 87 frames decoded (89024 samples); 
  Input stream #1:1 (video): 50 packets read (203365 bytes); 50 frames decoded; 
  Total: 139 packets (229944 bytes) demuxed
Output file #0 (/var/www/html/project/media/video/watermarks/4_5825521699868645309.mp4):
  Output stream #0:0 (video): 689 frames encoded; 689 packets muxed (12944000 bytes); 
  Output stream #0:1 (audio): 1187 frames encoded (1215360 samples); 1188 packets muxed (433609 bytes); 
  Total: 1877 packets (13377609 bytes) muxed
[AVIOContext @ 0x55a0eca6cf00] Statistics: 2 seeks, 55 writeouts
[libx264 @ 0x55a0ecb21b40] frame I:6     Avg QP:13.54  size: 79714
[libx264 @ 0x55a0ecb21b40] frame P:243   Avg QP:18.01  size: 32291
[libx264 @ 0x55a0ecb21b40] frame B:440   Avg QP:20.53  size: 10496
[libx264 @ 0x55a0ecb21b40] consecutive B-frames:  7.4% 19.7%  7.8% 65.0%
[libx264 @ 0x55a0ecb21b40] mb I  I16..4: 26.1% 19.9% 54.0%
[libx264 @ 0x55a0ecb21b40] mb P  I16..4:  8.0% 27.2%  7.6%  P16..4: 19.5% 13.4% 10.1%  0.0%  0.0%    skip:14.2%
[libx264 @ 0x55a0ecb21b40] mb B  I16..4:  2.4%  5.4%  0.8%  B16..8: 24.7% 12.1%  1.7%  direct:12.6%  skip:40.3%  L0:39.6% L1:44.7% BI:15.6%
[libx264 @ 0x55a0ecb21b40] 8x8 transform intra:61.6% inter:37.7%
[libx264 @ 0x55a0ecb21b40] coded y,uvDC,uvAC intra: 58.1% 47.3% 9.3% inter: 20.4% 13.8% 0.4%
[libx264 @ 0x55a0ecb21b40] i16 v,h,dc,p: 34% 37% 16% 13%
[libx264 @ 0x55a0ecb21b40] i8 v,h,dc,ddl,ddr,vr,hd,vl,hu: 20% 36% 15%  3%  6%  5%  7%  4%  5%
[libx264 @ 0x55a0ecb21b40] i4 v,h,dc,ddl,ddr,vr,hd,vl,hu: 19% 33% 11%  5%  8%  6%  9%  4%  6%
[libx264 @ 0x55a0ecb21b40] i8c dc,h,v,p: 51% 24% 19%  6%
[libx264 @ 0x55a0ecb21b40] Weighted P-Frames: Y:8.6% UV:1.6%
[libx264 @ 0x55a0ecb21b40] kb/s:3760.77
[aac @ 0x55a0eca56f00] Qavg: 1869.669
[AVIOContext @ 0x55a0eca1e040] Statistics: 41448193 bytes read, 1254 seeks
[AVIOContext @ 0x55a0eca18980] Statistics: 1530915 bytes read, 42 seeks
